<svg width="51" height="68" viewBox="0 0 51 68" fill="none" xmlns="http://www.w3.org/2000/svg">
<path d="M16.1016 8.05147C16.1016 12.5 12.4979 16.1015 8.05156 16.1015C3.60312 16.1015 0 12.5 0 8.05147C0 3.60667 3.60312 5.1542e-06 8.05156 5.1542e-06C12.4979 5.1542e-06 16.1016 3.60667 16.1016 8.05147Z" fill="#CF181F"/>
<path d="M32.474 13.2131C32.474 14 31.8365 14.6381 31.048 14.6381H19.2589C18.4709 14.6381 17.8344 14 17.8344 13.2131V1.424C17.8344 0.638132 18.4709 0 19.2589 0H31.048C31.8365 0 32.474 0.638132 32.474 1.424V13.2131Z" fill="#2F9E41"/>
<path d="M50.3072 13.2131C50.3072 14 49.6692 14.6381 48.8839 14.6381H37.0927C36.3067 14.6381 35.6687 14 35.6687 13.2131V1.424C35.6687 0.638132 36.3067 0 37.0927 0H48.8839C49.6692 0 50.3072 0.638132 50.3072 1.424V13.2131Z" fill="#2F9E41"/>
<path d="M14.6385 30.9856C14.6385 31.7726 14.0021 32.4126 13.2152 32.4126H1.42396C0.638016 32.4126 0 31.7726 0 30.9856V19.1965C0 18.4106 0.638016 17.7726 1.42396 17.7726H13.2152C14.0021 17.7726 14.6385 18.4106 14.6385 19.1965V30.9856Z" fill="#2F9E41"/>
<path d="M32.474 30.9856C32.474 31.7726 31.8365 32.4126 31.048 32.4126H19.2589C18.4709 32.4126 17.8344 31.7726 17.8344 30.9856V19.1965C17.8344 18.4106 18.4709 17.7726 19.2589 17.7726H31.048C31.8365 17.7726 32.474 18.4106 32.474 19.1965V30.9856Z" fill="#2F9E41"/>
<path d="M14.6385 48.7614C14.6385 49.5483 14.0021 50.1865 13.2152 50.1865H1.42396C0.638016 50.1865 0 49.5483 0 48.7614V36.9723C0 36.1865 0.638016 35.5453 1.42396 35.5453H13.2152C14.0021 35.5453 14.6385 36.1865 14.6385 36.9723V48.7614Z" fill="#2F9E41"/>
<path d="M32.474 48.7614C32.474 49.5483 31.8365 50.1865 31.048 50.1865H19.2589C18.4709 50.1865 17.8344 49.5483 17.8344 48.7614V36.9723C17.8344 36.1865 18.4709 35.5453 19.2589 35.5453H31.048C31.8365 35.5453 32.474 36.1865 32.474 36.9723V48.7614Z" fill="#2F9E41"/>
<path d="M50.3072 48.7614C50.3072 49.5483 49.6692 50.1865 48.8839 50.1865H37.0927C36.3067 50.1865 35.6687 49.5483 35.6687 48.7614V36.9723C35.6687 36.1865 36.3067 35.5453 37.0927 35.5453H48.8839C49.6692 35.5453 50.3072 36.1865 50.3072 36.9723V48.7614Z" fill="#2F9E41"/>
<path d="M14.6385 66.5341C14.6385 67.3201 14.0021 67.9581 13.2152 67.9581H1.42396C0.638016 67.9581 0 67.3201 0 66.5341V54.7451C0 53.9561 0.638016 53.3179 1.42396 53.3179H13.2152C14.0021 53.3179 14.6385 53.9561 14.6385 54.7451V66.5341Z" fill="#2F9E41"/>
<path d="M32.474 66.5341C32.474 67.3201 31.8365 67.9581 31.048 67.9581H19.2589C18.4709 67.9581 17.8344 67.3201 17.8344 66.5341V54.7451C17.8344 53.9561 18.4709 53.3179 19.2589 53.3179H31.048C31.8365 53.3179 32.474 53.9561 32.474 54.7451V66.5341Z" fill="#2F9E41"/>
</svg>
